<svg width="82" height="82" viewBox="0 0 82 82" fill="none" xmlns="http://www.w3.org/2000/svg">
<path d="M72.6667 55.3175V18.1667C72.6667 8.12958 64.5371 0 54.5 0C44.4629 0 36.3333 8.12958 36.3333 18.1667V63.5833C36.3333 68.5792 32.2458 72.6667 27.25 72.6667C22.2542 72.6667 18.1667 68.5792 18.1667 63.5833V26.4325C23.435 24.525 27.25 19.5292 27.25 13.625C27.25 6.08583 21.1642 0 13.625 0C6.08583 0 0 6.08583 0 13.625C0 19.5292 3.815 24.525 9.08333 26.4325V63.5833C9.08333 73.6204 17.2129 81.75 27.25 81.75C37.2871 81.75 45.4167 73.6204 45.4167 63.5833V18.1667C45.4167 13.1708 49.5042 9.08333 54.5 9.08333C59.4958 9.08333 63.5833 13.1708 63.5833 18.1667V55.3175C60.5587 56.3891 58.0101 58.4951 56.3878 61.2636C54.7654 64.0321 54.1737 67.2849 54.717 70.4473C55.2604 73.6098 56.904 76.4785 59.3574 78.5467C61.8108 80.6149 64.9162 81.7494 68.125 81.75C75.6642 81.75 81.75 75.6642 81.75 68.125C81.75 62.2208 77.935 57.225 72.6667 55.3175Z" fill="#DA3100"/>
</svg>