<svg width="41" height="30" viewBox="0 0 41 30" fill="none" xmlns="http://www.w3.org/2000/svg">
<path d="M27.9545 0C28.4488 0 28.9228 0.197544 29.2723 0.549175C29.6218 0.900806 29.8182 1.37772 29.8182 1.875V9.75L39.5333 2.90625C39.673 2.80773 39.8369 2.74968 40.0071 2.73844C40.1774 2.7272 40.3474 2.76319 40.4987 2.84249C40.65 2.92179 40.7768 3.04136 40.8652 3.18816C40.9536 3.33496 41.0002 3.50336 41 3.675V26.325C41.0002 26.4966 40.9536 26.665 40.8652 26.8118C40.7768 26.9586 40.65 27.0782 40.4987 27.1575C40.3474 27.2368 40.1774 27.2728 40.0071 27.2616C39.8369 27.2503 39.673 27.1923 39.5333 27.0938L29.8182 20.25V28.125C29.8182 28.6223 29.6218 29.0992 29.2723 29.4508C28.9228 29.8025 28.4488 30 27.9545 30H1.86364C1.36937 30 0.895346 29.8025 0.545846 29.4508C0.196347 29.0992 0 28.6223 0 28.125V1.875C0 1.37772 0.196347 0.900806 0.545846 0.549175C0.895346 0.197544 1.36937 0 1.86364 0H27.9545ZM26.0909 3.75H3.72727V26.25H26.0909V3.75ZM14.9091 7.5L22.3636 15H16.7727V22.5H13.0455V15H7.45455L14.9091 7.5ZM37.2727 9.07687L29.8182 14.3269V15.6731L37.2727 20.9231V9.075V9.07687Z" fill="#9FA5A7"/>
</svg>
